<svg id="visual" viewBox="0 0 900 600" width="900" height="600" xmlns="http://www.w3.org/2000/svg" xmlns:xlink="http://www.w3.org/1999/xlink" version="1.1"><rect x="0" y="0" width="900" height="600" fill="#ffffff"></rect><path d="M0 280L50 278C100 276 200 272 300 266.2C400 260.3 500 252.7 600 245.5C700 238.3 800 231.7 850 228.3L900 225L900 601L850 601C800 601 700 601 600 601C500 601 400 601 300 601C200 601 100 601 50 601L0 601Z" fill="#cdb1f6"></path><path d="M0 272L50 276.8C100 281.7 200 291.3 300 297.5C400 303.7 500 306.3 600 314.8C700 323.3 800 337.7 850 344.8L900 352L900 601L850 601C800 601 700 601 600 601C500 601 400 601 300 601C200 601 100 601 50 601L0 601Z" fill="#ae92d6"></path><path d="M0 367L50 371.2C100 375.3 200 383.7 300 376.5C400 369.3 500 346.7 600 333.5C700 320.3 800 316.7 850 314.8L900 313L900 601L850 601C800 601 700 601 600 601C500 601 400 601 300 601C200 601 100 601 50 601L0 601Z" fill="#9075b7"></path><path d="M0 398L50 408.8C100 419.7 200 441.3 300 455.3C400 469.3 500 475.7 600 467C700 458.3 800 434.7 850 422.8L900 411L900 601L850 601C800 601 700 601 600 601C500 601 400 601 300 601C200 601 100 601 50 601L0 601Z" fill="#735899"></path><path d="M0 472L50 471C100 470 200 468 300 473.7C400 479.3 500 492.7 600 503.7C700 514.7 800 523.3 850 527.7L900 532L900 601L850 601C800 601 700 601 600 601C500 601 400 601 300 601C200 601 100 601 50 601L0 601Z" fill="#563d7c"></path></svg>